<?xml version="1.0" encoding="UTF-8" standalone="no"?>
<svg
   xmlns:dc="http://purl.org/dc/elements/1.1/"
   xmlns:cc="http://creativecommons.org/ns#"
   xmlns:rdf="http://www.w3.org/1999/02/22-rdf-syntax-ns#"
   xmlns:svg="http://www.w3.org/2000/svg"
   xmlns="http://www.w3.org/2000/svg"
   xmlns:sodipodi="http://sodipodi.sourceforge.net/DTD/sodipodi-0.dtd"
   xmlns:inkscape="http://www.inkscape.org/namespaces/inkscape"
   height="16"
   viewBox="0 0 16 16"
   width="16"
   version="1.1"
   id="svg76"
   sodipodi:docname="NotStickyStaticBody2D.svg"
   inkscape:version="1.0.1 (3bc2e813f5, 2020-09-07)">
  <metadata
     id="metadata82">
    <rdf:RDF>
      <cc:Work
         rdf:about="">
        <dc:format>image/svg+xml</dc:format>
        <dc:type
           rdf:resource="http://purl.org/dc/dcmitype/StillImage" />
      </cc:Work>
    </rdf:RDF>
  </metadata>
  <defs
     id="defs80" />
  <sodipodi:namedview
     pagecolor="#ffffff"
     bordercolor="#666666"
     borderopacity="1"
     objecttolerance="10"
     gridtolerance="10"
     guidetolerance="10"
     inkscape:pageopacity="0"
     inkscape:pageshadow="2"
     inkscape:window-width="1920"
     inkscape:window-height="1137"
     id="namedview78"
     showgrid="false"
     inkscape:zoom="11.484375"
     inkscape:cx="-25.236161"
     inkscape:cy="10.066881"
     inkscape:window-x="-8"
     inkscape:window-y="-8"
     inkscape:window-maximized="1"
     inkscape:current-layer="svg76" />
  <g
     transform="translate(0 -1036.4)"
     id="g74">
    <path
       d="m29 1042.4h1v1h-1z"
       fill="#fefeff"
       id="path70" />
    <path
       d="m3 1a2 2 0 0 0 -1.4141.58594 2 2 0 0 0 -.58594 1.4141v10a2 2 0 0 0 .58594 1.4141 2 2 0 0 0 1.4141.58594h10a2 2 0 0 0 2-2v-10a2 2 0 0 0 -2-2h-10zm0 1h10a1 1 0 0 1 1 1v10a1 1 0 0 1 -1 1h-10a1 1 0 0 1 -1-1v-10a1 1 0 0 1 1-1zm0 1v2h2v-2zm8 0v2h2v-2zm-8 8v2h2v-2zm8 0v2h2v-2z"
       fill="#a5b7f3"
       fill-opacity=".98824"
       transform="translate(0 1036.4)"
       id="path72" />
  </g>
  <path
     style="fill:#a5b7f3;fill-opacity:1;stroke:#a5b7f3;stroke-width:1px;stroke-linecap:butt;stroke-linejoin:miter;stroke-opacity:1"
     d="M 3.2324882,8.0042563 9.8975709,3.3402378"
     id="path84"
     sodipodi:nodetypes="cc" />
  <path
     style="fill:#a5b7f3;fill-opacity:1;stroke:#a5b7f3;stroke-width:1px;stroke-linecap:butt;stroke-linejoin:miter;stroke-opacity:1"
     d="M 6.1263347,12.683668 12.791417,8.0196492"
     id="path917"
     sodipodi:nodetypes="cc" />
</svg>
